<?xml version="1.0" encoding="UTF-8"?><svg xmlns="http://www.w3.org/2000/svg" xmlns:xlink="http://www.w3.org/1999/xlink" contentScriptType="text/ecmascript" width="375" zoomAndPan="magnify" contentStyleType="text/css" viewBox="0 0 375 374.999991" height="374.999991" preserveAspectRatio="xMidYMid meet" version="1.0"><defs><clipPath id="clip-0"><path d="M 40 360 L 335 360 L 335 374.988281 L 40 374.988281 Z M 40 360 " clip-rule="nonzero"/></clipPath><clipPath id="clip-1"><path d="M 28.828125 99.132812 L 184 99.132812 L 184 354.316406 L 28.828125 354.316406 Z M 28.828125 99.132812 " clip-rule="nonzero"/></clipPath><clipPath id="clip-2"><path d="M 191.140625 99.132812 L 346.511719 99.132812 L 346.511719 354.316406 L 191.140625 354.316406 Z M 191.140625 99.132812 " clip-rule="nonzero"/></clipPath><clipPath id="clip-3"><path d="M 53.183594 0 L 321 0 L 321 375 L 53.183594 375 Z M 53.183594 0 " clip-rule="nonzero"/></clipPath></defs><path fill="rgb(54.899597%, 32.159424%, 100%)" d="M 187.667969 119.949219 C 187.925781 119.949219 188.160156 120.09375 188.261719 120.328125 L 322.417969 353.046875 C 322.59375 353.355469 322.488281 353.746094 322.183594 353.921875 C 321.878906 354.101562 321.488281 353.996094 321.3125 353.6875 L 187.671875 121.867188 L 54.03125 353.6875 C 53.855469 353.996094 53.464844 354.101562 53.160156 353.921875 C 52.851562 353.746094 52.746094 353.355469 52.921875 353.046875 L 187.105469 120.292969 C 187.214844 120.089844 187.429688 119.949219 187.667969 119.949219 " fill-opacity="1" fill-rule="nonzero"/><g clip-path="url(#clip-0)"><path fill="rgb(54.899597%, 32.159424%, 100%)" d="M 48.855469 360.753906 C 48.964844 360.753906 49.074219 360.78125 49.175781 360.835938 C 49.480469 361.015625 49.585938 361.40625 49.410156 361.710938 L 42.59375 373.53125 L 332.746094 373.53125 L 325.933594 361.710938 C 325.757812 361.40625 325.863281 361.015625 326.167969 360.835938 C 326.472656 360.660156 326.863281 360.765625 327.039062 361.074219 L 334.410156 373.851562 C 334.523438 374.050781 334.527344 374.296875 334.410156 374.492188 C 334.296875 374.691406 334.085938 374.8125 333.855469 374.8125 L 41.484375 374.8125 C 41.257812 374.8125 41.046875 374.691406 40.929688 374.492188 C 40.816406 374.296875 40.816406 374.050781 40.929688 373.851562 L 48.300781 361.074219 C 48.421875 360.867188 48.636719 360.753906 48.855469 360.753906 " fill-opacity="1" fill-rule="nonzero"/></g><path fill="rgb(54.899597%, 32.159424%, 100%)" d="M 53.476562 352.726562 L 53.5 352.726562 C 53.855469 352.726562 54.140625 353.015625 54.140625 353.367188 C 54.140625 353.722656 53.855469 354.007812 53.5 354.007812 C 53.148438 354.007812 52.851562 353.722656 52.851562 353.367188 C 52.851562 353.015625 53.125 352.726562 53.476562 352.726562 " fill-opacity="1" fill-rule="nonzero"/><g clip-path="url(#clip-1)"><path fill="rgb(54.899597%, 32.159424%, 100%)" d="M 175.65625 99.132812 C 175.882812 99.132812 176.09375 99.253906 176.210938 99.453125 L 183.585938 112.257812 C 183.765625 112.5625 183.660156 112.957031 183.351562 113.132812 C 183.046875 113.308594 182.65625 113.203125 182.476562 112.898438 L 175.65625 101.054688 L 30.578125 352.726562 L 44.222656 352.726562 C 44.578125 352.726562 44.863281 353.015625 44.863281 353.367188 C 44.863281 353.722656 44.578125 354.007812 44.222656 354.007812 L 29.46875 354.007812 C 29.242188 354.007812 29.027344 353.886719 28.914062 353.6875 C 28.800781 353.492188 28.800781 353.246094 28.914062 353.046875 L 175.101562 99.453125 C 175.214844 99.253906 175.425781 99.132812 175.65625 99.132812 " fill-opacity="1" fill-rule="nonzero"/></g><path fill="rgb(54.899597%, 32.159424%, 100%)" d="M 188.234375 120.3125 L 322.394531 353.046875 C 322.570312 353.355469 322.46875 353.746094 322.160156 353.921875 C 321.851562 354.101562 321.464844 353.996094 321.285156 353.6875 L 187.117188 120.9375 L 187.664062 120.601562 L 188.234375 120.3125 " fill-opacity="1" fill-rule="nonzero"/><path fill="rgb(54.899597%, 32.159424%, 100%)" d="M 187.683594 119.972656 C 187.78125 119.972656 187.882812 119.992188 187.976562 120.042969 C 188.28125 120.207031 188.40625 120.578125 188.25 120.886719 L 188.242188 120.902344 L 54.609375 352.726562 L 321.839844 352.726562 C 322.191406 352.726562 322.492188 353.015625 322.492188 353.367188 C 322.492188 353.722656 322.21875 354.007812 321.867188 354.007812 L 53.5 354.007812 C 53.273438 354.007812 53.0625 353.886719 52.945312 353.6875 C 52.832031 353.492188 52.832031 353.246094 52.945312 353.046875 L 187.117188 120.296875 C 187.234375 120.089844 187.457031 119.972656 187.683594 119.972656 " fill-opacity="1" fill-rule="nonzero"/><g clip-path="url(#clip-2)"><path fill="rgb(54.899597%, 32.159424%, 100%)" d="M 199.6875 99.132812 C 199.917969 99.132812 200.125 99.253906 200.242188 99.453125 L 346.425781 353.046875 C 346.539062 353.246094 346.539062 353.492188 346.425781 353.6875 C 346.3125 353.886719 346.101562 354.007812 345.871094 354.007812 L 331.117188 354.007812 C 330.765625 354.007812 330.476562 353.722656 330.476562 353.367188 C 330.476562 353.015625 330.765625 352.726562 331.117188 352.726562 L 344.765625 352.726562 L 199.6875 101.054688 L 192.863281 112.898438 C 192.6875 113.203125 192.296875 113.308594 191.988281 113.132812 C 191.683594 112.957031 191.578125 112.5625 191.757812 112.257812 L 199.132812 99.453125 C 199.246094 99.253906 199.460938 99.132812 199.6875 99.132812 " fill-opacity="1" fill-rule="nonzero"/></g><g clip-path="url(#clip-3)"><path fill="rgb(54.899597%, 32.159424%, 100%)" d="M 319.132812 190.28125 L 319.140625 190.28125 Z M 187.269531 1.5 C 185.933594 1.5 184.722656 2.132812 183.949219 3.226562 L 56.019531 185.164062 C 55.035156 186.566406 55.035156 188.449219 56.019531 189.847656 L 183.949219 371.785156 C 184.722656 372.886719 185.933594 373.511719 187.269531 373.511719 C 188.609375 373.511719 189.820312 372.886719 190.585938 371.785156 L 318.519531 189.847656 C 319.507812 188.449219 319.507812 186.566406 318.519531 185.164062 L 190.585938 3.226562 C 189.820312 2.132812 188.609375 1.5 187.269531 1.5 Z M 187.269531 375.015625 C 185.4375 375.015625 183.78125 374.152344 182.726562 372.652344 L 54.792969 190.714844 C 53.441406 188.792969 53.441406 186.21875 54.792969 184.300781 L 182.726562 2.359375 C 183.78125 0.859375 185.4375 -0.00390625 187.269531 -0.00390625 C 189.105469 -0.00390625 190.761719 0.859375 191.816406 2.359375 L 319.75 184.300781 C 321.097656 186.21875 321.097656 188.792969 319.75 190.714844 L 191.816406 372.652344 C 190.761719 374.152344 189.105469 375.015625 187.269531 375.015625 " fill-opacity="1" fill-rule="nonzero"/></g><path fill="rgb(54.899597%, 32.159424%, 100%)" d="M 185.386719 14.753906 C 185.28125 14.347656 185.523438 13.933594 185.917969 13.828125 C 186.316406 13.722656 186.730469 13.964844 186.835938 14.363281 C 186.945312 14.769531 186.707031 15.175781 186.300781 15.289062 C 186.242188 15.304688 186.175781 15.308594 186.113281 15.308594 C 185.777344 15.308594 185.476562 15.085938 185.386719 14.753906 Z M 191.058594 17.808594 C 190.820312 17.46875 190.902344 17 191.242188 16.761719 C 191.578125 16.523438 192.042969 16.605469 192.28125 16.941406 C 192.523438 17.277344 192.441406 17.75 192.101562 17.996094 C 191.96875 18.082031 191.820312 18.128906 191.667969 18.128906 C 191.433594 18.128906 191.203125 18.015625 191.058594 17.808594 Z M 181.085938 19.910156 C 180.75 19.667969 180.664062 19.207031 180.90625 18.863281 C 181.144531 18.519531 181.609375 18.445312 181.949219 18.675781 C 182.285156 18.917969 182.371094 19.382812 182.136719 19.730469 C 181.984375 19.933594 181.753906 20.046875 181.519531 20.046875 C 181.371094 20.046875 181.222656 20 181.085938 19.910156 Z M 194.945312 23.339844 C 194.707031 23 194.789062 22.535156 195.128906 22.292969 C 195.464844 22.054688 195.933594 22.136719 196.167969 22.472656 C 196.410156 22.8125 196.328125 23.285156 195.992188 23.519531 C 195.863281 23.617188 195.710938 23.664062 195.5625 23.664062 C 195.320312 23.664062 195.089844 23.546875 194.945312 23.339844 Z M 177.199219 25.441406 C 176.859375 25.199219 176.777344 24.738281 177.015625 24.390625 C 177.257812 24.054688 177.722656 23.96875 178.058594 24.210938 C 178.398438 24.449219 178.484375 24.917969 178.242188 25.261719 C 178.097656 25.464844 177.867188 25.578125 177.625 25.578125 C 177.484375 25.578125 177.324219 25.53125 177.199219 25.441406 Z M 198.835938 28.871094 C 198.59375 28.535156 198.679688 28.066406 199.015625 27.824219 C 199.351562 27.585938 199.824219 27.667969 200.066406 28.003906 C 200.296875 28.34375 200.222656 28.816406 199.878906 29.050781 C 199.753906 29.148438 199.597656 29.195312 199.449219 29.195312 C 199.21875 29.195312 198.984375 29.082031 198.835938 28.871094 Z M 173.3125 30.976562 C 172.972656 30.734375 172.890625 30.261719 173.128906 29.921875 C 173.363281 29.585938 173.835938 29.503906 174.171875 29.742188 C 174.511719 29.984375 174.59375 30.449219 174.355469 30.789062 C 174.210938 30.996094 173.980469 31.113281 173.738281 31.113281 C 173.589844 31.113281 173.4375 31.0625 173.3125 30.976562 Z M 202.722656 34.402344 C 202.480469 34.066406 202.566406 33.59375 202.902344 33.359375 C 203.242188 33.117188 203.710938 33.199219 203.953125 33.535156 C 204.1875 33.878906 204.113281 34.34375 203.773438 34.582031 C 203.640625 34.683594 203.488281 34.71875 203.335938 34.71875 C 203.105469 34.71875 202.875 34.613281 202.722656 34.402344 Z M 169.421875 36.5 C 169.085938 36.257812 169 35.792969 169.242188 35.453125 C 169.476562 35.117188 169.949219 35.035156 170.285156 35.273438 C 170.621094 35.515625 170.703125 35.980469 170.464844 36.320312 C 170.324219 36.527344 170.089844 36.644531 169.851562 36.644531 C 169.699219 36.644531 169.550781 36.597656 169.421875 36.5 Z M 206.609375 39.933594 C 206.378906 39.597656 206.453125 39.125 206.796875 38.882812 C 207.136719 38.648438 207.601562 38.726562 207.839844 39.070312 C 208.082031 39.410156 208 39.875 207.660156 40.113281 C 207.527344 40.203125 207.378906 40.25 207.226562 40.25 C 206.992188 40.25 206.761719 40.136719 206.609375 39.933594 Z M 165.535156 42.03125 C 165.191406 41.789062 165.113281 41.328125 165.347656 40.984375 C 165.585938 40.648438 166.050781 40.566406 166.398438 40.804688 C 166.734375 41.039062 166.816406 41.515625 166.578125 41.851562 C 166.425781 42.0625 166.195312 42.164062 165.960938 42.164062 C 165.8125 42.164062 165.664062 42.121094 165.535156 42.03125 Z M 210.503906 45.464844 C 210.265625 45.121094 210.347656 44.65625 210.6875 44.414062 C 211.023438 44.175781 211.488281 44.257812 211.726562 44.601562 C 211.96875 44.941406 211.886719 45.40625 211.550781 45.648438 C 211.421875 45.738281 211.265625 45.785156 211.113281 45.785156 C 210.878906 45.785156 210.648438 45.667969 210.503906 45.464844 Z M 161.640625 47.5625 C 161.304688 47.324219 161.21875 46.859375 161.457031 46.519531 C 161.699219 46.183594 162.164062 46.097656 162.5 46.339844 C 162.839844 46.574219 162.925781 47.046875 162.691406 47.382812 C 162.539062 47.59375 162.308594 47.699219 162.074219 47.699219 C 161.925781 47.699219 161.773438 47.652344 161.640625 47.5625 Z M 214.394531 50.992188 C 214.152344 50.65625 214.234375 50.1875 214.574219 49.945312 C 214.910156 49.707031 215.378906 49.789062 215.617188 50.128906 C 215.855469 50.472656 215.773438 50.9375 215.4375 51.179688 C 215.308594 51.269531 215.15625 51.316406 215.007812 51.316406 C 214.769531 51.316406 214.535156 51.199219 214.394531 50.992188 Z M 157.753906 53.097656 C 157.414062 52.855469 157.332031 52.390625 157.570312 52.050781 C 157.8125 51.707031 158.277344 51.632812 158.613281 51.863281 C 158.953125 52.105469 159.035156 52.578125 158.796875 52.914062 C 158.652344 53.117188 158.421875 53.230469 158.1875 53.230469 C 158.035156 53.230469 157.886719 53.183594 157.753906 53.097656 Z M 218.28125 56.53125 C 218.039062 56.1875 218.121094 55.71875 218.460938 55.476562 C 218.800781 55.238281 219.269531 55.320312 219.511719 55.660156 C 219.742188 56 219.671875 56.472656 219.324219 56.710938 C 219.199219 56.800781 219.046875 56.847656 218.894531 56.847656 C 218.65625 56.847656 218.429688 56.734375 218.28125 56.53125 Z M 153.863281 58.628906 C 153.527344 58.386719 153.441406 57.914062 153.683594 57.574219 C 153.917969 57.238281 154.390625 57.15625 154.726562 57.394531 C 155.0625 57.636719 155.144531 58.101562 154.910156 58.445312 C 154.765625 58.648438 154.535156 58.765625 154.292969 58.765625 C 154.148438 58.765625 153.992188 58.71875 153.863281 58.628906 Z M 222.167969 62.054688 C 221.925781 61.71875 222.011719 61.25 222.347656 61.011719 C 222.695312 60.769531 223.160156 60.855469 223.398438 61.191406 C 223.640625 61.53125 223.558594 62.003906 223.21875 62.238281 C 223.085938 62.335938 222.933594 62.378906 222.785156 62.378906 C 222.550781 62.378906 222.320312 62.265625 222.167969 62.054688 Z M 149.976562 64.160156 C 149.636719 63.917969 149.554688 63.445312 149.789062 63.109375 C 150.03125 62.769531 150.503906 62.6875 150.839844 62.925781 C 151.175781 63.167969 151.261719 63.636719 151.019531 63.972656 C 150.867188 64.183594 150.644531 64.296875 150.40625 64.296875 C 150.253906 64.296875 150.105469 64.25 149.976562 64.160156 Z M 226.054688 67.585938 C 225.824219 67.25 225.898438 66.777344 226.242188 66.542969 C 226.582031 66.304688 227.046875 66.386719 227.285156 66.722656 C 227.527344 67.0625 227.445312 67.527344 227.109375 67.769531 C 226.972656 67.867188 226.824219 67.910156 226.671875 67.910156 C 226.4375 67.902344 226.207031 67.796875 226.054688 67.585938 Z M 146.089844 69.6875 C 145.746094 69.453125 145.664062 68.980469 145.902344 68.640625 C 146.140625 68.300781 146.605469 68.21875 146.953125 68.460938 C 147.289062 68.699219 147.371094 69.167969 147.132812 69.503906 C 146.980469 69.714844 146.75 69.828125 146.515625 69.828125 C 146.367188 69.828125 146.214844 69.785156 146.089844 69.6875 Z M 229.953125 73.117188 C 229.710938 72.78125 229.792969 72.308594 230.128906 72.078125 C 230.46875 71.835938 230.933594 71.917969 231.175781 72.253906 C 231.414062 72.59375 231.332031 73.058594 230.996094 73.300781 C 230.867188 73.390625 230.710938 73.4375 230.566406 73.4375 C 230.328125 73.4375 230.09375 73.332031 229.953125 73.117188 Z M 142.195312 75.21875 C 141.855469 74.984375 141.773438 74.511719 142.011719 74.171875 C 142.253906 73.835938 142.71875 73.75 143.054688 73.992188 C 143.394531 74.230469 143.476562 74.699219 143.242188 75.035156 C 143.09375 75.246094 142.863281 75.351562 142.628906 75.351562 C 142.476562 75.351562 142.328125 75.316406 142.195312 75.21875 Z M 233.839844 78.652344 C 233.597656 78.3125 233.679688 77.839844 234.019531 77.597656 C 234.359375 77.367188 234.828125 77.441406 235.0625 77.789062 C 235.300781 78.125 235.21875 78.59375 234.882812 78.832031 C 234.753906 78.921875 234.605469 78.96875 234.453125 78.96875 C 234.214844 78.96875 233.984375 78.855469 233.839844 78.652344 Z M 138.304688 80.75 C 137.96875 80.507812 137.882812 80.042969 138.128906 79.703125 C 138.363281 79.367188 138.832031 79.285156 139.167969 79.527344 C 139.503906 79.757812 139.589844 80.230469 139.351562 80.566406 C 139.207031 80.777344 138.976562 80.886719 138.734375 80.886719 C 138.589844 80.886719 138.441406 80.839844 138.304688 80.75 Z M 237.726562 84.183594 C 237.484375 83.839844 237.566406 83.371094 237.90625 83.132812 C 238.246094 82.890625 238.71875 82.976562 238.957031 83.3125 C 239.1875 83.660156 239.105469 84.125 238.769531 84.363281 C 238.644531 84.457031 238.492188 84.5 238.34375 84.5 C 238.101562 84.5 237.871094 84.386719 237.726562 84.183594 Z M 134.417969 86.28125 C 134.082031 86.039062 134 85.574219 134.238281 85.238281 C 134.476562 84.898438 134.945312 84.816406 135.28125 85.046875 C 135.617188 85.289062 135.703125 85.761719 135.460938 86.101562 C 135.320312 86.304688 135.085938 86.417969 134.847656 86.417969 C 134.703125 86.417969 134.546875 86.371094 134.417969 86.28125 Z M 241.613281 89.707031 C 241.375 89.371094 241.457031 88.902344 241.796875 88.664062 C 242.136719 88.425781 242.605469 88.507812 242.84375 88.84375 C 243.085938 89.183594 243.003906 89.65625 242.667969 89.894531 C 242.53125 89.988281 242.378906 90.03125 242.230469 90.03125 C 241.996094 90.03125 241.761719 89.917969 241.613281 89.707031 Z M 130.53125 91.8125 C 130.191406 91.574219 130.109375 91.109375 130.351562 90.761719 C 130.585938 90.425781 131.054688 90.347656 131.394531 90.582031 C 131.730469 90.820312 131.8125 91.296875 131.574219 91.632812 C 131.421875 91.835938 131.199219 91.949219 130.960938 91.949219 C 130.808594 91.949219 130.65625 91.90625 130.53125 91.8125 Z M 245.5 95.242188 C 245.269531 94.902344 245.347656 94.4375 245.6875 94.199219 C 246.027344 93.957031 246.492188 94.039062 246.734375 94.375 C 246.972656 94.714844 246.890625 95.191406 246.554688 95.429688 C 246.417969 95.519531 246.265625 95.566406 246.117188 95.566406 C 245.886719 95.566406 245.652344 95.453125 245.5 95.242188 Z M 126.644531 97.34375 C 126.296875 97.105469 126.222656 96.640625 126.457031 96.292969 C 126.695312 95.957031 127.167969 95.875 127.507812 96.113281 C 127.84375 96.351562 127.925781 96.820312 127.683594 97.164062 C 127.535156 97.367188 127.304688 97.480469 127.070312 97.480469 C 126.917969 97.480469 126.769531 97.4375 126.644531 97.34375 Z M 249.398438 100.773438 C 249.15625 100.433594 249.238281 99.96875 249.578125 99.730469 C 249.917969 99.488281 250.378906 99.570312 250.621094 99.910156 C 250.859375 100.246094 250.777344 100.722656 250.441406 100.953125 C 250.304688 101.050781 250.15625 101.097656 250.003906 101.097656 C 249.773438 101.097656 249.542969 100.984375 249.398438 100.773438 Z M 122.746094 102.871094 C 122.410156 102.640625 122.328125 102.164062 122.570312 101.824219 C 122.804688 101.488281 123.273438 101.40625 123.609375 101.644531 C 123.949219 101.886719 124.03125 102.351562 123.796875 102.6875 C 123.648438 102.898438 123.417969 103.015625 123.183594 103.015625 C 123.03125 103.015625 122.882812 102.96875 122.746094 102.871094 Z M 253.285156 106.304688 C 253.042969 105.96875 253.125 105.492188 253.464844 105.261719 C 253.804688 105.019531 254.277344 105.101562 254.507812 105.441406 C 254.746094 105.78125 254.664062 106.246094 254.328125 106.484375 C 254.199219 106.585938 254.050781 106.621094 253.902344 106.621094 C 253.660156 106.621094 253.429688 106.515625 253.285156 106.304688 Z M 118.859375 108.402344 C 118.523438 108.160156 118.441406 107.695312 118.679688 107.355469 C 118.917969 107.019531 119.386719 106.9375 119.722656 107.179688 C 120.0625 107.410156 120.144531 107.882812 119.902344 108.222656 C 119.761719 108.433594 119.527344 108.546875 119.289062 108.546875 C 119.144531 108.546875 118.988281 108.5 118.859375 108.402344 Z M 257.171875 111.835938 C 256.933594 111.5 257.015625 111.027344 257.355469 110.785156 C 257.691406 110.550781 258.164062 110.632812 258.402344 110.972656 C 258.636719 111.3125 258.554688 111.777344 258.214844 112.015625 C 258.085938 112.109375 257.9375 112.15625 257.789062 112.15625 C 257.546875 112.15625 257.316406 112.039062 257.171875 111.835938 Z M 114.972656 113.933594 C 114.636719 113.695312 114.550781 113.230469 114.792969 112.890625 C 115.03125 112.550781 115.496094 112.46875 115.835938 112.710938 C 116.175781 112.949219 116.257812 113.417969 116.015625 113.753906 C 115.875 113.964844 115.640625 114.070312 115.402344 114.070312 C 115.25 114.070312 115.097656 114.023438 114.972656 113.933594 Z M 261.058594 117.371094 C 260.828125 117.023438 260.902344 116.558594 261.242188 116.320312 C 261.585938 116.082031 262.050781 116.160156 262.292969 116.507812 C 262.53125 116.84375 262.449219 117.3125 262.113281 117.550781 C 261.976562 117.640625 261.824219 117.6875 261.675781 117.6875 C 261.445312 117.6875 261.210938 117.570312 261.058594 117.371094 Z M 111.085938 119.464844 C 110.75 119.226562 110.664062 118.761719 110.902344 118.421875 C 111.136719 118.082031 111.609375 118 111.949219 118.242188 C 112.285156 118.472656 112.371094 118.949219 112.128906 119.285156 C 111.984375 119.488281 111.753906 119.601562 111.515625 119.601562 C 111.359375 119.601562 111.210938 119.558594 111.085938 119.464844 Z M 264.945312 122.902344 C 264.714844 122.558594 264.792969 122.089844 265.136719 121.851562 C 265.476562 121.609375 265.9375 121.691406 266.179688 122.027344 C 266.417969 122.375 266.335938 122.84375 266 123.082031 C 265.863281 123.171875 265.710938 123.21875 265.5625 123.21875 C 265.332031 123.21875 265.097656 123.105469 264.945312 122.902344 Z M 107.191406 125 C 106.851562 124.761719 106.777344 124.292969 107.011719 123.945312 C 107.25 123.609375 107.722656 123.53125 108.058594 123.765625 C 108.398438 124.007812 108.480469 124.480469 108.242188 124.820312 C 108.089844 125.019531 107.859375 125.136719 107.625 125.136719 C 107.472656 125.136719 107.324219 125.089844 107.191406 125 Z M 268.84375 128.425781 C 268.601562 128.089844 268.683594 127.621094 269.023438 127.382812 C 269.363281 127.140625 269.824219 127.222656 270.066406 127.5625 C 270.304688 127.902344 270.222656 128.375 269.886719 128.613281 C 269.753906 128.707031 269.601562 128.75 269.449219 128.75 C 269.21875 128.75 268.988281 128.636719 268.84375 128.425781 Z M 103.300781 130.53125 C 102.964844 130.292969 102.882812 129.820312 103.125 129.476562 C 103.363281 129.140625 103.828125 129.058594 104.167969 129.300781 C 104.511719 129.539062 104.585938 130.007812 104.355469 130.34375 C 104.203125 130.554688 103.96875 130.667969 103.738281 130.667969 C 103.585938 130.667969 103.4375 130.621094 103.300781 130.53125 Z M 272.730469 133.957031 C 272.492188 133.621094 272.574219 133.152344 272.910156 132.914062 C 273.25 132.671875 273.722656 132.753906 273.953125 133.09375 C 274.195312 133.433594 274.113281 133.90625 273.773438 134.140625 C 273.644531 134.238281 273.496094 134.28125 273.347656 134.28125 C 273.105469 134.28125 272.875 134.171875 272.730469 133.957031 Z M 99.414062 136.0625 C 99.078125 135.824219 98.996094 135.351562 99.234375 135.011719 C 99.476562 134.671875 99.9375 134.589844 100.277344 134.832031 C 100.617188 135.070312 100.699219 135.539062 100.457031 135.875 C 100.316406 136.085938 100.082031 136.199219 99.851562 136.199219 C 99.699219 136.199219 99.550781 136.15625 99.414062 136.0625 Z M 276.617188 139.492188 C 276.378906 139.152344 276.460938 138.679688 276.800781 138.445312 C 277.136719 138.203125 277.609375 138.289062 277.847656 138.628906 C 278.082031 138.964844 278.007812 139.433594 277.660156 139.671875 C 277.53125 139.769531 277.382812 139.808594 277.234375 139.808594 C 277.003906 139.808594 276.769531 139.703125 276.617188 139.492188 Z M 95.527344 141.585938 C 95.191406 141.355469 95.109375 140.882812 95.347656 140.542969 C 95.585938 140.203125 96.050781 140.121094 96.390625 140.363281 C 96.726562 140.601562 96.8125 141.070312 96.570312 141.40625 C 96.425781 141.621094 96.195312 141.730469 95.957031 141.730469 C 95.804688 141.730469 95.652344 141.6875 95.527344 141.585938 Z M 280.503906 145.023438 C 280.265625 144.683594 280.347656 144.210938 280.6875 143.980469 C 281.023438 143.738281 281.496094 143.820312 281.738281 144.160156 C 281.96875 144.496094 281.894531 144.964844 281.558594 145.203125 C 281.421875 145.296875 281.269531 145.339844 281.121094 145.339844 C 280.890625 145.339844 280.65625 145.234375 280.503906 145.023438 Z M 91.640625 147.121094 C 91.300781 146.878906 91.21875 146.414062 91.457031 146.078125 C 91.691406 145.738281 92.164062 145.652344 92.5 145.894531 C 92.839844 146.136719 92.921875 146.601562 92.683594 146.941406 C 92.535156 147.152344 92.308594 147.261719 92.066406 147.261719 C 91.917969 147.261719 91.765625 147.21875 91.640625 147.121094 Z M 284.394531 150.558594 C 284.160156 150.214844 284.238281 149.742188 284.582031 149.503906 C 284.917969 149.269531 285.382812 149.34375 285.625 149.691406 C 285.863281 150.027344 285.78125 150.496094 285.445312 150.734375 C 285.3125 150.828125 285.160156 150.871094 285.007812 150.871094 C 284.777344 150.871094 284.542969 150.757812 284.394531 150.558594 Z M 87.742188 152.652344 C 87.40625 152.414062 87.332031 151.945312 87.566406 151.609375 C 87.804688 151.269531 88.277344 151.1875 88.613281 151.421875 C 88.953125 151.660156 89.035156 152.132812 88.796875 152.472656 C 88.644531 152.683594 88.410156 152.789062 88.179688 152.789062 C 88.03125 152.789062 87.878906 152.746094 87.742188 152.652344 Z M 288.289062 156.089844 C 288.050781 155.742188 288.132812 155.273438 288.46875 155.035156 C 288.808594 154.792969 289.269531 154.878906 289.511719 155.214844 C 289.753906 155.5625 289.671875 156.027344 289.332031 156.269531 C 289.199219 156.359375 289.046875 156.402344 288.894531 156.402344 C 288.664062 156.402344 288.433594 156.292969 288.289062 156.089844 Z M 83.855469 158.183594 C 83.519531 157.945312 83.4375 157.476562 83.675781 157.140625 C 83.917969 156.800781 84.378906 156.71875 84.71875 156.953125 C 85.058594 157.191406 85.140625 157.664062 84.90625 158.003906 C 84.757812 158.207031 84.523438 158.320312 84.292969 158.320312 C 84.140625 158.320312 83.992188 158.277344 83.855469 158.183594 Z M 292.175781 161.613281 C 291.9375 161.273438 292.019531 160.808594 292.355469 160.566406 C 292.695312 160.328125 293.160156 160.410156 293.398438 160.75 C 293.640625 161.085938 293.558594 161.558594 293.21875 161.800781 C 293.089844 161.890625 292.9375 161.933594 292.792969 161.933594 C 292.550781 161.933594 292.320312 161.824219 292.175781 161.613281 Z M 79.96875 163.714844 C 79.632812 163.476562 79.550781 163.007812 79.789062 162.664062 C 80.027344 162.328125 80.492188 162.25 80.832031 162.484375 C 81.171875 162.722656 81.253906 163.195312 81.011719 163.539062 C 80.867188 163.738281 80.636719 163.851562 80.398438 163.851562 C 80.253906 163.851562 80.101562 163.808594 79.96875 163.714844 Z M 296.0625 167.144531 C 295.824219 166.804688 295.90625 166.339844 296.246094 166.101562 C 296.582031 165.859375 297.054688 165.941406 297.296875 166.28125 C 297.527344 166.617188 297.453125 167.09375 297.109375 167.332031 C 296.980469 167.421875 296.828125 167.46875 296.679688 167.46875 C 296.449219 167.46875 296.207031 167.355469 296.0625 167.144531 Z M 76.082031 169.25 C 75.742188 169.007812 75.660156 168.535156 75.898438 168.195312 C 76.140625 167.859375 76.605469 167.777344 76.941406 168.015625 C 77.28125 168.257812 77.367188 168.722656 77.125 169.070312 C 76.980469 169.273438 76.75 169.382812 76.507812 169.382812 C 76.359375 169.382812 76.210938 169.339844 76.082031 169.25 Z M 299.953125 172.675781 C 299.710938 172.335938 299.792969 171.875 300.132812 171.632812 C 300.476562 171.390625 300.941406 171.472656 301.183594 171.8125 C 301.421875 172.148438 301.339844 172.625 301.003906 172.855469 C 300.867188 172.953125 300.71875 173 300.566406 172.992188 C 300.335938 172.992188 300.101562 172.886719 299.953125 172.675781 Z M 72.195312 174.773438 C 71.847656 174.542969 71.773438 174.066406 72.011719 173.730469 C 72.246094 173.390625 72.71875 173.308594 73.054688 173.550781 C 73.394531 173.789062 73.476562 174.253906 73.238281 174.59375 C 73.09375 174.804688 72.863281 174.917969 72.621094 174.917969 C 72.472656 174.917969 72.320312 174.871094 72.195312 174.773438 Z M 303.839844 178.210938 C 303.609375 177.871094 303.679688 177.394531 304.027344 177.164062 C 304.363281 176.921875 304.828125 177.003906 305.070312 177.34375 C 305.3125 177.683594 305.230469 178.148438 304.890625 178.386719 C 304.757812 178.480469 304.605469 178.523438 304.453125 178.523438 C 304.222656 178.523438 303.988281 178.417969 303.839844 178.210938 Z M 68.296875 180.304688 C 67.960938 180.066406 67.882812 179.597656 68.117188 179.261719 C 68.359375 178.921875 68.832031 178.839844 69.167969 179.082031 C 69.503906 179.320312 69.589844 179.785156 69.351562 180.125 C 69.199219 180.335938 68.964844 180.449219 68.734375 180.449219 C 68.582031 180.449219 68.433594 180.402344 68.296875 180.304688 Z M 307.734375 183.742188 C 307.496094 183.402344 307.578125 182.929688 307.914062 182.691406 C 308.253906 182.457031 308.71875 182.539062 308.957031 182.878906 C 309.199219 183.214844 309.117188 183.679688 308.777344 183.921875 C 308.648438 184.011719 308.492188 184.054688 308.351562 184.054688 C 308.109375 184.054688 307.878906 183.953125 307.734375 183.742188 Z M 64.472656 185.875 C 64.117188 185.664062 63.996094 185.207031 64.207031 184.84375 C 64.425781 184.492188 64.882812 184.371094 65.238281 184.582031 C 65.597656 184.800781 65.71875 185.257812 65.496094 185.613281 C 65.363281 185.851562 65.109375 185.980469 64.851562 185.980469 C 64.726562 185.980469 64.59375 185.953125 64.472656 185.875 Z M 309.054688 190.695312 C 308.71875 190.453125 308.644531 189.984375 308.875 189.644531 C 308.933594 189.558594 309.019531 189.488281 309.101562 189.4375 C 309.101562 189.335938 309.128906 189.234375 309.175781 189.136719 C 309.355469 188.769531 309.804688 188.613281 310.179688 188.792969 C 310.550781 188.980469 310.707031 189.421875 310.527344 189.796875 C 310.457031 189.933594 310.363281 190.039062 310.242188 190.117188 C 310.234375 190.25 310.1875 190.386719 310.105469 190.515625 C 309.957031 190.71875 309.722656 190.828125 309.492188 190.828125 C 309.34375 190.828125 309.191406 190.785156 309.054688 190.695312 Z M 65.378906 191.851562 C 65.140625 191.511719 65.222656 191.039062 65.558594 190.800781 C 65.894531 190.566406 66.363281 190.648438 66.601562 190.988281 C 66.84375 191.324219 66.757812 191.792969 66.421875 192.03125 C 66.285156 192.121094 66.136719 192.167969 65.988281 192.167969 C 65.753906 192.167969 65.519531 192.054688 65.378906 191.851562 Z M 305.167969 196.226562 C 304.828125 195.984375 304.746094 195.511719 304.988281 195.175781 C 305.230469 194.835938 305.695312 194.75 306.03125 194.992188 C 306.367188 195.234375 306.453125 195.699219 306.21875 196.039062 C 306.070312 196.25 305.835938 196.359375 305.605469 196.359375 C 305.453125 196.359375 305.300781 196.316406 305.167969 196.226562 Z M 69.269531 197.382812 C 69.027344 197.039062 69.109375 196.570312 69.445312 196.332031 C 69.785156 196.089844 70.257812 196.171875 70.492188 196.511719 C 70.730469 196.855469 70.644531 197.324219 70.308594 197.566406 C 70.183594 197.65625 70.03125 197.699219 69.878906 197.699219 C 69.644531 197.699219 69.410156 197.589844 69.269531 197.382812 Z M 301.28125 201.75 C 300.941406 201.515625 300.859375 201.042969 301.101562 200.707031 C 301.339844 200.367188 301.804688 200.285156 302.144531 200.523438 C 302.480469 200.765625 302.5625 201.230469 302.324219 201.570312 C 302.179688 201.78125 301.949219 201.890625 301.707031 201.890625 C 301.566406 201.890625 301.410156 201.847656 301.28125 201.75 Z M 73.15625 202.910156 C 72.914062 202.570312 72.996094 202.105469 73.335938 201.863281 C 73.671875 201.621094 74.144531 201.703125 74.382812 202.046875 C 74.617188 202.382812 74.535156 202.855469 74.195312 203.097656 C 74.070312 203.1875 73.921875 203.230469 73.769531 203.230469 C 73.53125 203.230469 73.304688 203.121094 73.15625 202.910156 Z M 297.390625 207.28125 C 297.054688 207.050781 296.972656 206.574219 297.214844 206.238281 C 297.445312 205.898438 297.917969 205.816406 298.257812 206.058594 C 298.59375 206.300781 298.675781 206.761719 298.4375 207.101562 C 298.292969 207.3125 298.0625 207.417969 297.820312 207.417969 C 297.671875 207.417969 297.519531 207.378906 297.390625 207.28125 Z M 77.042969 208.441406 C 76.808594 208.101562 76.882812 207.636719 77.222656 207.394531 C 77.566406 207.152344 78.035156 207.238281 78.273438 207.578125 C 78.511719 207.914062 78.429688 208.386719 78.09375 208.621094 C 77.957031 208.71875 77.808594 208.761719 77.660156 208.761719 C 77.425781 208.761719 77.191406 208.652344 77.042969 208.441406 Z M 293.503906 212.816406 C 293.160156 212.574219 293.085938 212.105469 293.316406 211.769531 C 293.558594 211.433594 294.03125 211.351562 294.371094 211.589844 C 294.707031 211.824219 294.789062 212.296875 294.546875 212.636719 C 294.398438 212.84375 294.164062 212.949219 293.933594 212.949219 C 293.785156 212.949219 293.632812 212.910156 293.503906 212.816406 Z M 80.929688 213.972656 C 80.695312 213.632812 80.773438 213.167969 81.117188 212.925781 C 81.453125 212.6875 81.921875 212.769531 82.160156 213.109375 C 82.402344 213.445312 82.316406 213.917969 81.980469 214.152344 C 81.84375 214.25 81.695312 214.289062 81.546875 214.289062 C 81.3125 214.289062 81.078125 214.183594 80.929688 213.972656 Z M 289.609375 218.347656 C 289.269531 218.105469 289.199219 217.640625 289.429688 217.300781 C 289.671875 216.964844 290.136719 216.882812 290.480469 217.121094 C 290.820312 217.355469 290.902344 217.828125 290.660156 218.167969 C 290.511719 218.371094 290.277344 218.480469 290.046875 218.480469 C 289.894531 218.480469 289.746094 218.4375 289.609375 218.347656 Z M 84.824219 219.503906 C 84.582031 219.164062 84.667969 218.691406 85.003906 218.460938 C 85.34375 218.21875 85.808594 218.300781 86.050781 218.640625 C 86.289062 218.976562 86.203125 219.445312 85.867188 219.683594 C 85.742188 219.78125 85.589844 219.820312 85.4375 219.820312 C 85.199219 219.820312 84.96875 219.714844 84.824219 219.503906 Z M 285.722656 223.878906 C 285.382812 223.636719 285.300781 223.171875 285.542969 222.835938 C 285.78125 222.488281 286.25 222.414062 286.585938 222.648438 C 286.921875 222.886719 287.003906 223.351562 286.773438 223.699219 C 286.625 223.902344 286.390625 224.011719 286.15625 224.011719 C 286.007812 224.011719 285.855469 223.96875 285.722656 223.878906 Z M 88.710938 225.039062 C 88.46875 224.699219 88.554688 224.226562 88.894531 223.984375 C 89.230469 223.753906 89.703125 223.824219 89.9375 224.171875 C 90.175781 224.507812 90.09375 224.976562 89.753906 225.21875 C 89.628906 225.308594 89.480469 225.351562 89.328125 225.351562 C 89.085938 225.351562 88.855469 225.242188 88.710938 225.039062 Z M 281.832031 229.414062 C 281.496094 229.171875 281.414062 228.707031 281.65625 228.359375 C 281.894531 228.019531 282.363281 227.9375 282.699219 228.179688 C 283.035156 228.421875 283.117188 228.882812 282.878906 229.230469 C 282.738281 229.433594 282.503906 229.546875 282.261719 229.546875 C 282.121094 229.546875 281.96875 229.5 281.832031 229.414062 Z M 92.597656 230.570312 C 92.359375 230.222656 92.441406 229.757812 92.78125 229.515625 C 93.117188 229.273438 93.589844 229.359375 93.828125 229.703125 C 94.0625 230.042969 93.980469 230.507812 93.640625 230.75 C 93.515625 230.839844 93.367188 230.882812 93.214844 230.882812 C 92.972656 230.882812 92.742188 230.773438 92.597656 230.570312 Z M 277.945312 234.945312 C 277.609375 234.703125 277.527344 234.230469 277.765625 233.890625 C 278.007812 233.554688 278.472656 233.46875 278.8125 233.710938 C 279.148438 233.953125 279.230469 234.417969 278.988281 234.757812 C 278.847656 234.964844 278.613281 235.078125 278.375 235.078125 C 278.226562 235.078125 278.074219 235.03125 277.945312 234.945312 Z M 96.488281 236.101562 C 96.253906 235.753906 96.332031 235.289062 96.667969 235.050781 C 97.011719 234.808594 97.476562 234.890625 97.71875 235.230469 C 97.957031 235.574219 97.875 236.039062 97.539062 236.28125 C 97.402344 236.371094 97.253906 236.414062 97.101562 236.414062 C 96.871094 236.414062 96.636719 236.304688 96.488281 236.101562 Z M 274.058594 240.46875 C 273.714844 240.234375 273.640625 239.761719 273.871094 239.421875 C 274.113281 239.085938 274.582031 239.003906 274.921875 239.242188 C 275.261719 239.484375 275.34375 239.949219 275.101562 240.289062 C 274.953125 240.5 274.71875 240.613281 274.488281 240.613281 C 274.335938 240.613281 274.1875 240.566406 274.058594 240.46875 Z M 100.382812 241.628906 C 100.140625 241.285156 100.226562 240.824219 100.5625 240.582031 C 100.902344 240.339844 101.367188 240.421875 101.605469 240.761719 C 101.84375 241.097656 101.761719 241.574219 101.425781 241.816406 C 101.289062 241.902344 101.140625 241.949219 100.992188 241.949219 C 100.757812 241.949219 100.527344 241.835938 100.382812 241.628906 Z M 270.164062 246 C 269.824219 245.761719 269.753906 245.292969 269.984375 244.957031 C 270.222656 244.617188 270.691406 244.535156 271.027344 244.773438 C 271.375 245.015625 271.457031 245.480469 271.214844 245.820312 C 271.066406 246.03125 270.832031 246.136719 270.597656 246.136719 C 270.449219 246.136719 270.300781 246.089844 270.164062 246 Z M 104.269531 247.160156 C 104.027344 246.820312 104.113281 246.355469 104.453125 246.113281 C 104.789062 245.871094 105.253906 245.957031 105.496094 246.292969 C 105.730469 246.632812 105.648438 247.097656 105.3125 247.339844 C 105.179688 247.433594 105.027344 247.480469 104.886719 247.480469 C 104.644531 247.480469 104.414062 247.367188 104.269531 247.160156 Z M 266.273438 251.535156 C 265.9375 251.292969 265.855469 250.828125 266.097656 250.488281 C 266.335938 250.152344 266.804688 250.066406 267.140625 250.304688 C 267.476562 250.542969 267.558594 251.015625 267.328125 251.351562 C 267.179688 251.554688 266.945312 251.667969 266.710938 251.667969 C 266.5625 251.667969 266.414062 251.621094 266.273438 251.535156 Z M 108.15625 252.691406 C 107.917969 252.351562 108 251.886719 108.339844 251.644531 C 108.675781 251.40625 109.148438 251.488281 109.382812 251.824219 C 109.621094 252.164062 109.539062 252.628906 109.199219 252.871094 C 109.074219 252.960938 108.917969 253.003906 108.773438 253.003906 C 108.53125 253.003906 108.300781 252.902344 108.15625 252.691406 Z M 262.386719 257.066406 C 262.050781 256.824219 261.96875 256.359375 262.207031 256.019531 C 262.449219 255.671875 262.914062 255.601562 263.253906 255.832031 C 263.589844 256.074219 263.671875 256.546875 263.429688 256.882812 C 263.289062 257.085938 263.054688 257.199219 262.816406 257.199219 C 262.675781 257.199219 262.515625 257.15625 262.386719 257.066406 Z M 112.046875 258.222656 C 111.808594 257.882812 111.890625 257.410156 112.226562 257.175781 C 112.5625 256.9375 113.035156 257.019531 113.277344 257.359375 C 113.511719 257.695312 113.425781 258.164062 113.089844 258.402344 C 112.960938 258.492188 112.8125 258.539062 112.660156 258.539062 C 112.421875 258.539062 112.1875 258.425781 112.046875 258.222656 Z M 258.5 262.597656 C 258.164062 262.355469 258.082031 261.882812 258.320312 261.546875 C 258.554688 261.207031 259.023438 261.125 259.363281 261.363281 C 259.703125 261.605469 259.785156 262.070312 259.542969 262.410156 C 259.398438 262.621094 259.167969 262.730469 258.929688 262.730469 C 258.777344 262.730469 258.628906 262.6875 258.5 262.597656 Z M 115.933594 263.753906 C 115.699219 263.417969 115.777344 262.945312 116.121094 262.703125 C 116.460938 262.46875 116.925781 262.542969 117.164062 262.882812 C 117.402344 263.226562 117.320312 263.695312 116.984375 263.9375 C 116.847656 264.023438 116.699219 264.070312 116.550781 264.070312 C 116.316406 264.070312 116.085938 263.957031 115.933594 263.753906 Z M 254.613281 268.128906 C 254.265625 267.886719 254.195312 267.414062 254.425781 267.078125 C 254.664062 266.738281 255.136719 266.65625 255.476562 266.894531 C 255.816406 267.136719 255.898438 267.601562 255.65625 267.941406 C 255.507812 268.152344 255.273438 268.265625 255.039062 268.265625 C 254.890625 268.265625 254.742188 268.21875 254.613281 268.128906 Z M 119.820312 269.28125 C 119.585938 268.941406 119.664062 268.476562 120.011719 268.234375 C 120.347656 267.992188 120.8125 268.074219 121.054688 268.414062 C 121.289062 268.753906 121.207031 269.226562 120.871094 269.46875 C 120.738281 269.558594 120.585938 269.601562 120.4375 269.601562 C 120.203125 269.601562 119.972656 269.488281 119.820312 269.28125 Z M 250.71875 273.660156 C 250.378906 273.417969 250.304688 272.945312 250.539062 272.609375 C 250.777344 272.273438 251.246094 272.191406 251.589844 272.425781 C 251.925781 272.667969 252.007812 273.136719 251.769531 273.472656 C 251.621094 273.683594 251.386719 273.796875 251.152344 273.796875 C 251.003906 273.796875 250.855469 273.75 250.71875 273.660156 Z M 123.714844 274.8125 C 123.476562 274.472656 123.558594 274.007812 123.898438 273.765625 C 124.234375 273.527344 124.699219 273.609375 124.941406 273.949219 C 125.179688 274.285156 125.097656 274.757812 124.757812 275 C 124.632812 275.089844 124.476562 275.132812 124.332031 275.132812 C 124.089844 275.132812 123.859375 275.023438 123.714844 274.8125 Z M 246.828125 279.1875 C 246.492188 278.945312 246.410156 278.480469 246.652344 278.140625 C 246.890625 277.804688 247.355469 277.722656 247.699219 277.960938 C 248.039062 278.203125 248.113281 278.667969 247.882812 279.003906 C 247.730469 279.214844 247.496094 279.320312 247.265625 279.320312 C 247.117188 279.320312 246.96875 279.285156 246.828125 279.1875 Z M 127.601562 280.34375 C 127.363281 280.003906 127.449219 279.539062 127.785156 279.296875 C 128.121094 279.058594 128.59375 279.140625 128.828125 279.480469 C 129.066406 279.816406 128.984375 280.289062 128.648438 280.53125 C 128.519531 280.621094 128.371094 280.667969 128.21875 280.667969 C 127.976562 280.667969 127.746094 280.554688 127.601562 280.34375 Z M 242.941406 284.71875 C 242.605469 284.476562 242.523438 284.011719 242.761719 283.671875 C 243.003906 283.335938 243.46875 283.253906 243.808594 283.484375 C 244.144531 283.726562 244.226562 284.199219 243.984375 284.539062 C 243.84375 284.742188 243.609375 284.851562 243.371094 284.851562 C 243.230469 284.851562 243.070312 284.808594 242.941406 284.71875 Z M 131.492188 285.875 C 131.25 285.539062 131.335938 285.070312 131.671875 284.828125 C 132.007812 284.59375 132.480469 284.675781 132.714844 285.011719 C 132.957031 285.347656 132.875 285.816406 132.535156 286.058594 C 132.40625 286.152344 132.253906 286.191406 132.105469 286.191406 C 131.875 286.191406 131.644531 286.085938 131.492188 285.875 Z M 239.054688 290.25 C 238.71875 290.007812 238.636719 289.546875 238.875 289.203125 C 239.105469 288.867188 239.582031 288.785156 239.917969 289.015625 C 240.257812 289.257812 240.339844 289.734375 240.097656 290.070312 C 239.957031 290.273438 239.722656 290.386719 239.480469 290.386719 C 239.332031 290.386719 239.183594 290.339844 239.054688 290.25 Z M 135.378906 291.40625 C 135.140625 291.070312 135.222656 290.597656 135.558594 290.355469 C 135.90625 290.125 136.367188 290.207031 136.609375 290.542969 C 136.84375 290.882812 136.765625 291.347656 136.421875 291.589844 C 136.296875 291.679688 136.144531 291.722656 135.992188 291.722656 C 135.761719 291.722656 135.53125 291.613281 135.378906 291.40625 Z M 235.167969 295.78125 C 234.820312 295.539062 234.746094 295.078125 234.980469 294.738281 C 235.21875 294.394531 235.691406 294.316406 236.03125 294.550781 C 236.367188 294.789062 236.449219 295.257812 236.210938 295.601562 C 236.0625 295.804688 235.828125 295.917969 235.59375 295.917969 C 235.445312 295.917969 235.296875 295.871094 235.167969 295.78125 Z M 139.269531 296.941406 C 139.035156 296.601562 139.117188 296.128906 139.457031 295.886719 C 139.792969 295.65625 140.257812 295.730469 140.496094 296.074219 C 140.738281 296.414062 140.65625 296.878906 140.316406 297.121094 C 140.183594 297.210938 140.035156 297.253906 139.878906 297.253906 C 139.648438 297.253906 139.417969 297.144531 139.269531 296.941406 Z M 231.273438 301.316406 C 230.933594 301.074219 230.851562 300.601562 231.09375 300.261719 C 231.332031 299.925781 231.796875 299.84375 232.144531 300.082031 C 232.480469 300.324219 232.5625 300.789062 232.324219 301.132812 C 232.171875 301.335938 231.9375 301.453125 231.707031 301.453125 C 231.558594 301.453125 231.410156 301.402344 231.273438 301.316406 Z M 143.160156 302.472656 C 142.921875 302.125 143.007812 301.664062 143.34375 301.417969 C 143.679688 301.179688 144.144531 301.261719 144.382812 301.605469 C 144.625 301.949219 144.542969 302.414062 144.207031 302.652344 C 144.074219 302.742188 143.921875 302.789062 143.777344 302.789062 C 143.535156 302.789062 143.304688 302.675781 143.160156 302.472656 Z M 227.386719 306.847656 C 227.046875 306.605469 226.964844 306.132812 227.203125 305.796875 C 227.445312 305.457031 227.910156 305.375 228.25 305.613281 C 228.59375 305.855469 228.667969 306.320312 228.4375 306.660156 C 228.285156 306.867188 228.050781 306.984375 227.8125 306.984375 C 227.671875 306.984375 227.519531 306.9375 227.386719 306.847656 Z M 147.050781 308.003906 C 146.808594 307.660156 146.890625 307.191406 147.230469 306.953125 C 147.566406 306.710938 148.039062 306.796875 148.273438 307.132812 C 148.511719 307.46875 148.429688 307.941406 148.09375 308.183594 C 147.964844 308.273438 147.8125 308.320312 147.664062 308.320312 C 147.425781 308.320312 147.191406 308.207031 147.050781 308.003906 Z M 223.496094 312.375 C 223.160156 312.140625 223.078125 311.667969 223.316406 311.324219 C 223.558594 310.988281 224.023438 310.90625 224.359375 311.144531 C 224.699219 311.386719 224.78125 311.855469 224.539062 312.191406 C 224.398438 312.402344 224.164062 312.515625 223.925781 312.515625 C 223.78125 312.515625 223.625 312.46875 223.496094 312.375 Z M 150.9375 313.53125 C 150.699219 313.191406 150.78125 312.726562 151.117188 312.484375 C 151.457031 312.246094 151.925781 312.328125 152.167969 312.664062 C 152.402344 313.003906 152.316406 313.476562 151.980469 313.71875 C 151.855469 313.804688 151.703125 313.855469 151.550781 313.855469 C 151.320312 313.855469 151.078125 313.738281 150.9375 313.53125 Z M 219.609375 317.902344 C 219.269531 317.671875 219.1875 317.199219 219.429688 316.859375 C 219.660156 316.519531 220.136719 316.4375 220.472656 316.679688 C 220.808594 316.917969 220.890625 317.386719 220.652344 317.722656 C 220.511719 317.933594 220.277344 318.039062 220.035156 318.039062 C 219.886719 318.039062 219.738281 317.992188 219.609375 317.902344 Z M 154.828125 319.0625 C 154.582031 318.722656 154.667969 318.257812 155.015625 318.015625 C 155.351562 317.777344 155.816406 317.859375 156.054688 318.199219 C 156.296875 318.535156 156.214844 319 155.867188 319.242188 C 155.742188 319.339844 155.59375 319.386719 155.4375 319.386719 C 155.207031 319.386719 154.976562 319.269531 154.828125 319.0625 Z M 215.722656 323.4375 C 215.378906 323.195312 215.300781 322.730469 215.535156 322.390625 C 215.773438 322.054688 216.246094 321.96875 216.585938 322.210938 C 216.921875 322.445312 217.003906 322.917969 216.765625 323.253906 C 216.613281 323.460938 216.390625 323.570312 216.148438 323.570312 C 216 323.570312 215.851562 323.523438 215.722656 323.4375 Z M 158.710938 324.59375 C 158.480469 324.257812 158.5625 323.789062 158.898438 323.546875 C 159.238281 323.308594 159.703125 323.390625 159.941406 323.726562 C 160.183594 324.070312 160.101562 324.53125 159.761719 324.777344 C 159.628906 324.863281 159.480469 324.90625 159.328125 324.90625 C 159.09375 324.90625 158.863281 324.804688 158.710938 324.59375 Z M 211.828125 328.96875 C 211.488281 328.726562 211.40625 328.261719 211.644531 327.921875 C 211.886719 327.578125 212.351562 327.503906 212.699219 327.734375 C 213.035156 327.976562 213.109375 328.449219 212.878906 328.785156 C 212.726562 328.988281 212.492188 329.105469 212.261719 329.105469 C 212.113281 329.105469 211.960938 329.058594 211.828125 328.96875 Z M 162.605469 330.125 C 162.367188 329.789062 162.449219 329.316406 162.789062 329.082031 C 163.125 328.839844 163.589844 328.921875 163.832031 329.261719 C 164.070312 329.601562 163.988281 330.066406 163.652344 330.304688 C 163.515625 330.394531 163.367188 330.441406 163.222656 330.441406 C 162.984375 330.441406 162.75 330.328125 162.605469 330.125 Z M 207.941406 334.5 C 207.601562 334.257812 207.519531 333.785156 207.757812 333.449219 C 208 333.109375 208.464844 333.027344 208.800781 333.265625 C 209.148438 333.507812 209.222656 333.976562 208.988281 334.3125 C 208.839844 334.523438 208.605469 334.636719 208.375 334.636719 C 208.226562 334.636719 208.074219 334.589844 207.941406 334.5 Z M 166.496094 335.65625 C 166.253906 335.320312 166.335938 334.847656 166.675781 334.605469 C 167.015625 334.371094 167.484375 334.449219 167.71875 334.785156 C 167.960938 335.132812 167.875 335.597656 167.539062 335.839844 C 167.414062 335.925781 167.261719 335.972656 167.109375 335.972656 C 166.871094 335.972656 166.636719 335.863281 166.496094 335.65625 Z M 204.050781 340.03125 C 203.710938 339.792969 203.628906 339.320312 203.871094 338.980469 C 204.113281 338.640625 204.578125 338.558594 204.914062 338.800781 C 205.25 339.039062 205.332031 339.507812 205.09375 339.84375 C 204.953125 340.054688 204.71875 340.167969 204.488281 340.167969 C 204.335938 340.167969 204.1875 340.125 204.050781 340.03125 Z M 170.382812 341.183594 C 170.140625 340.84375 170.226562 340.378906 170.5625 340.136719 C 170.902344 339.898438 171.375 339.980469 171.609375 340.316406 C 171.84375 340.65625 171.761719 341.128906 171.425781 341.371094 C 171.300781 341.460938 171.148438 341.507812 170.996094 341.507812 C 170.757812 341.507812 170.53125 341.390625 170.382812 341.183594 Z M 200.164062 345.558594 C 199.824219 345.324219 199.742188 344.851562 199.984375 344.511719 C 200.214844 344.175781 200.691406 344.089844 201.027344 344.332031 C 201.363281 344.570312 201.445312 345.039062 201.207031 345.375 C 201.066406 345.585938 200.832031 345.699219 200.589844 345.699219 C 200.441406 345.699219 200.292969 345.65625 200.164062 345.558594 Z M 174.269531 346.714844 C 174.027344 346.378906 174.113281 345.910156 174.453125 345.667969 C 174.796875 345.429688 175.261719 345.511719 175.5 345.851562 C 175.734375 346.1875 175.660156 346.660156 175.320312 346.902344 C 175.1875 346.992188 175.035156 347.039062 174.886719 347.039062 C 174.652344 347.039062 174.421875 346.925781 174.269531 346.714844 Z M 196.273438 351.089844 C 195.933594 350.847656 195.855469 350.382812 196.085938 350.042969 C 196.328125 349.707031 196.800781 349.625 197.140625 349.867188 C 197.476562 350.097656 197.558594 350.570312 197.320312 350.90625 C 197.167969 351.117188 196.9375 351.226562 196.703125 351.226562 C 196.554688 351.226562 196.402344 351.1875 196.273438 351.089844 Z M 178.15625 352.246094 C 177.925781 351.910156 178.007812 351.441406 178.34375 351.203125 C 178.683594 350.960938 179.148438 351.042969 179.386719 351.382812 C 179.628906 351.722656 179.546875 352.195312 179.210938 352.429688 C 179.074219 352.527344 178.925781 352.570312 178.773438 352.570312 C 178.542969 352.570312 178.308594 352.457031 178.15625 352.246094 Z M 192.382812 356.621094 C 192.042969 356.378906 191.960938 355.914062 192.199219 355.578125 C 192.441406 355.238281 192.90625 355.15625 193.253906 355.386719 C 193.589844 355.628906 193.664062 356.101562 193.429688 356.441406 C 193.28125 356.644531 193.050781 356.757812 192.816406 356.757812 C 192.667969 356.757812 192.515625 356.710938 192.382812 356.621094 Z M 182.054688 357.777344 C 181.8125 357.441406 181.894531 356.96875 182.234375 356.734375 C 182.570312 356.492188 183.035156 356.578125 183.277344 356.914062 C 183.515625 357.253906 183.433594 357.71875 183.097656 357.960938 C 182.972656 358.058594 182.8125 358.09375 182.667969 358.09375 C 182.429688 358.09375 182.195312 357.988281 182.054688 357.777344 Z M 187.34375 360.667969 C 187.269531 360.257812 187.539062 359.867188 187.945312 359.792969 C 188.359375 359.71875 188.75 359.988281 188.824219 360.394531 C 188.898438 360.808594 188.628906 361.199219 188.214844 361.273438 C 188.171875 361.28125 188.125 361.28125 188.082031 361.28125 C 187.726562 361.28125 187.414062 361.027344 187.34375 360.667969 " fill-opacity="1" fill-rule="nonzero"/></svg>